<?xml version="1.0" encoding="UTF-8" standalone="no"?>
<!-- Created with Inkscape (http://www.inkscape.org/) -->

<svg
   xmlns:dc="http://purl.org/dc/elements/1.1/"
   xmlns:cc="http://creativecommons.org/ns#"
   xmlns:rdf="http://www.w3.org/1999/02/22-rdf-syntax-ns#"
   xmlns:svg="http://www.w3.org/2000/svg"
   xmlns="http://www.w3.org/2000/svg"
   xmlns:sodipodi="http://sodipodi.sourceforge.net/DTD/sodipodi-0.dtd"
   xmlns:inkscape="http://www.inkscape.org/namespaces/inkscape"
   width="17mm"
   height="17mm"
   viewBox="0 0 17 17"
   version="1.1"
   id="svg1051"
   inkscape:version="0.92.4 (5da689c313, 2019-01-14)"
   sodipodi:docname="e10.svg">
  <defs
     id="defs1045" />
  <sodipodi:namedview
     id="base"
     pagecolor="#ffffff"
     bordercolor="#666666"
     borderopacity="1.0"
     inkscape:pageopacity="0.0"
     inkscape:pageshadow="2"
     inkscape:zoom="1.8909582"
     inkscape:cx="7.3324683"
     inkscape:cy="186.49594"
     inkscape:document-units="mm"
     inkscape:current-layer="layer1"
     showgrid="false"
     fit-margin-top="0"
     fit-margin-left="0"
     fit-margin-right="0"
     fit-margin-bottom="0"
     inkscape:window-width="977"
     inkscape:window-height="991"
     inkscape:window-x="952"
     inkscape:window-y="0"
     inkscape:window-maximized="0" />
  <metadata
     id="metadata1048">
    <rdf:RDF>
      <cc:Work
         rdf:about="">
        <dc:format>image/svg+xml</dc:format>
        <dc:type
           rdf:resource="http://purl.org/dc/dcmitype/StillImage" />
        <dc:title></dc:title>
      </cc:Work>
    </rdf:RDF>
  </metadata>
  <g
     inkscape:label="Layer 1"
     inkscape:groupmode="layer"
     id="layer1"
     transform="translate(-39.110568,-58.479701)">
    <path
       style="opacity:0.97000002;vector-effect:none;fill:#000000;fill-opacity:1;fill-rule:nonzero;stroke:none;stroke-width:1;stroke-linecap:butt;stroke-linejoin:miter;stroke-miterlimit:4;stroke-dasharray:none;stroke-dashoffset:0;stroke-opacity:1"
       d="m 47.695079,58.54902 c -3.01804,-0.05197 -5.99252,1.566539 -7.55975,4.638993 -0.82057,1.608672 -0.92587,2.044644 -0.92087,3.826642 0.004,1.521066 0.15275,2.333054 0.60875,3.333644 1.03633,2.273987 3.201979,4.139362 5.59035,4.814695 1.66717,0.471408 3.93927,0.259746 5.65909,-0.527617 5.37217,-2.459458 6.61895,-9.386786 2.44119,-13.564548 -1.66847,-1.66847 -3.75379,-2.486249 -5.81876,-2.521809 z m 0.13229,0.860411 c 1.79488,0.04475 3.61416,0.742503 5.10976,2.238108 1.55003,1.550017 2.13576,3.030873 2.13476,5.393468 -9.79e-4,1.631389 -0.12488,2.219701 -0.69815,3.307292 -0.87483,1.659688 -2.12098,2.865634 -3.65507,3.536735 -5.1519,2.253767 -10.68691,-1.293843 -10.67791,-6.844027 0.007,-4.669491 3.83788,-7.730025 7.78661,-7.631576 z m -3.01584,3.927409 c -0.9794,0 -1.765781,0.666655 -1.765781,1.49655 0,0.818209 0.476431,0.793263 0.79375,-0.04134 0.177491,-0.466828 0.449961,-0.661457 0.926041,-0.661457 0.47608,0 0.74855,0.194629 0.92604,0.661457 0.30934,0.813631 0.79375,0.867065 0.79375,0.08733 0,-0.84117 -0.76083,-1.542542 -1.6738,-1.542542 z m 5.62343,0 c -0.89196,0 -1.83296,0.814952 -1.83296,1.5875 0,0.714788 0.60544,0.671679 0.92914,-0.06615 0.39185,-0.893154 1.38822,-0.929743 1.71773,-0.06305 0.14665,0.385724 0.40738,0.65468 0.57929,0.597383 0.98134,-0.327115 -0.19012,-2.055692 -1.3932,-2.055692 z m -2.76727,5.55625 c -3.69382,0 -3.92724,0.116726 -3.168281,1.584402 0.267791,0.517856 0.856761,1.030592 1.540471,1.341002 1.29789,0.589264 1.34083,0.593131 2.61121,0.240297 1.13975,-0.316561 2.33216,-1.607112 2.33216,-2.524396 V 68.89309 Z m -0.12402,0.926043 c 1.30969,0 2.38125,0.06867 2.38125,0.152447 0,0.08377 -0.27557,0.411195 -0.61237,0.727604 -0.81408,0.764794 -2.49827,0.777875 -3.45302,0.02687 -0.38342,-0.301604 -0.69711,-0.629027 -0.69711,-0.727606 0,-0.09858 1.07156,-0.179317 2.38125,-0.179317 z"
       id="rect61"
       inkscape:connector-curvature="0" />
  </g>
</svg>
