<?xml version="1.0" encoding="UTF-8" standalone="no"?>
<!-- Created with Inkscape (http://www.inkscape.org/) -->

<svg
   xmlns:dc="http://purl.org/dc/elements/1.1/"
   xmlns:cc="http://creativecommons.org/ns#"
   xmlns:rdf="http://www.w3.org/1999/02/22-rdf-syntax-ns#"
   xmlns:svg="http://www.w3.org/2000/svg"
   xmlns="http://www.w3.org/2000/svg"
   xmlns:sodipodi="http://sodipodi.sourceforge.net/DTD/sodipodi-0.dtd"
   xmlns:inkscape="http://www.inkscape.org/namespaces/inkscape"
   width="17mm"
   height="17mm"
   viewBox="0 0 17 17"
   version="1.1"
   id="svg1051"
   inkscape:version="0.92.4 (5da689c313, 2019-01-14)"
   sodipodi:docname="e17.svg">
  <defs
     id="defs1045" />
  <sodipodi:namedview
     id="base"
     pagecolor="#ffffff"
     bordercolor="#666666"
     borderopacity="1.0"
     inkscape:pageopacity="0.0"
     inkscape:pageshadow="2"
     inkscape:zoom="1.8909582"
     inkscape:cx="7.3324683"
     inkscape:cy="183.04398"
     inkscape:document-units="mm"
     inkscape:current-layer="layer1"
     showgrid="false"
     fit-margin-top="0"
     fit-margin-left="0"
     fit-margin-right="0"
     fit-margin-bottom="0"
     inkscape:window-width="977"
     inkscape:window-height="991"
     inkscape:window-x="952"
     inkscape:window-y="0"
     inkscape:window-maximized="0" />
  <metadata
     id="metadata1048">
    <rdf:RDF>
      <cc:Work
         rdf:about="">
        <dc:format>image/svg+xml</dc:format>
        <dc:type
           rdf:resource="http://purl.org/dc/dcmitype/StillImage" />
        <dc:title></dc:title>
      </cc:Work>
    </rdf:RDF>
  </metadata>
  <g
     inkscape:label="Layer 1"
     inkscape:groupmode="layer"
     id="layer1"
     transform="translate(-39.110568,-58.479701)">
    <path
       style="opacity:0.97000002;vector-effect:none;fill:#000000;fill-opacity:1;fill-rule:nonzero;stroke:none;stroke-width:0.99999994;stroke-linecap:butt;stroke-linejoin:miter;stroke-miterlimit:4;stroke-dasharray:none;stroke-dashoffset:0;stroke-opacity:1"
       d="m 47.556399,58.605575 c -2.586294,-0.005 -4.142901,0.65936 -5.999117,2.56005 -4.250534,4.35238 -2.485888,11.69295 3.308842,13.7635 1.943028,0.69427 4.615352,0.52369 6.451801,-0.41135 3.046291,-1.55104 4.705755,-4.23148 4.694803,-7.58197 -0.0081,-2.4919 -0.715264,-4.19293 -2.452044,-5.89886 -1.813354,-1.78116 -3.406942,-2.42637 -6.004285,-2.43137 z m -0.311094,0.79116 c 2.235951,-0.0859 4.569327,0.79128 6.019789,2.44326 3.38976,3.86072 2.130089,10.00047 -2.45618,11.97343 -3.577907,1.53917 -7.333488,0.48603 -9.428366,-2.64376 -2.592483,-3.8732 -1.248185,-8.87331 2.968294,-11.04119 0.884264,-0.45464 1.880124,-0.69268 2.896463,-0.73174 z m 5.31699,4.00286 c -0.325806,0.004 -0.935342,0.24059 -1.930115,0.74155 -1.793102,0.903 -2.09473,1.17432 -1.721342,1.54771 0.132932,0.13293 3.641246,-1.45231 4.051948,-1.83089 0.06306,-0.0581 -0.01183,-0.23197 -0.16588,-0.38602 -0.04927,-0.0493 -0.126011,-0.0737 -0.234611,-0.0724 z m -9.923426,0.004 c -0.03804,-0.002 -0.06468,0.004 -0.07803,0.0171 -0.370654,0.37065 -0.07886,0.64027 1.622124,1.49965 1.709978,0.86391 2.182812,0.9538 2.182812,0.415479 0,-0.301079 -3.156339,-1.908399 -3.726905,-1.932179 z m 4.980575,5.64306 c -0.583798,0.006 -1.139836,0.24603 -1.499134,0.7028 -0.727438,0.92479 -0.692902,1.82839 0.100769,2.62206 0.793668,0.79367 1.697791,0.82873 2.622579,0.10129 0.929915,-0.73147 0.990047,-2.39152 0.109037,-3.00861 -0.408321,-0.28599 -0.879186,-0.42238 -1.333251,-0.41754 z"
       id="rect75"
       inkscape:connector-curvature="0" />
  </g>
</svg>
