<?xml version="1.0" encoding="UTF-8" standalone="no"?>
<!-- Created with Inkscape (http://www.inkscape.org/) -->

<svg
   xmlns:dc="http://purl.org/dc/elements/1.1/"
   xmlns:cc="http://creativecommons.org/ns#"
   xmlns:rdf="http://www.w3.org/1999/02/22-rdf-syntax-ns#"
   xmlns:svg="http://www.w3.org/2000/svg"
   xmlns="http://www.w3.org/2000/svg"
   xmlns:sodipodi="http://sodipodi.sourceforge.net/DTD/sodipodi-0.dtd"
   xmlns:inkscape="http://www.inkscape.org/namespaces/inkscape"
   width="17mm"
   height="17mm"
   viewBox="0 0 17 17"
   version="1.1"
   id="svg1051"
   inkscape:version="0.92.4 (5da689c313, 2019-01-14)"
   sodipodi:docname="e18.svg">
  <defs
     id="defs1045" />
  <sodipodi:namedview
     id="base"
     pagecolor="#ffffff"
     bordercolor="#666666"
     borderopacity="1.0"
     inkscape:pageopacity="0.0"
     inkscape:pageshadow="2"
     inkscape:zoom="1.8909582"
     inkscape:cx="7.3324683"
     inkscape:cy="183.04398"
     inkscape:document-units="mm"
     inkscape:current-layer="layer1"
     showgrid="false"
     fit-margin-top="0"
     fit-margin-left="0"
     fit-margin-right="0"
     fit-margin-bottom="0"
     inkscape:window-width="977"
     inkscape:window-height="991"
     inkscape:window-x="952"
     inkscape:window-y="0"
     inkscape:window-maximized="0" />
  <metadata
     id="metadata1048">
    <rdf:RDF>
      <cc:Work
         rdf:about="">
        <dc:format>image/svg+xml</dc:format>
        <dc:type
           rdf:resource="http://purl.org/dc/dcmitype/StillImage" />
        <dc:title></dc:title>
      </cc:Work>
    </rdf:RDF>
  </metadata>
  <g
     inkscape:label="Layer 1"
     inkscape:groupmode="layer"
     id="layer1"
     transform="translate(-39.110568,-58.479701)">
    <path
       style="opacity:0.97000002;vector-effect:none;fill:#000000;fill-opacity:1;fill-rule:nonzero;stroke:none;stroke-width:0.99999994;stroke-linecap:butt;stroke-linejoin:miter;stroke-miterlimit:4;stroke-dasharray:none;stroke-dashoffset:0;stroke-opacity:1"
       d="m 47.523311,58.582131 c -2.508038,0.009 -4.128249,0.668 -5.834787,2.3735 -4.451467,4.44877 -2.568284,12.16792 3.426148,14.0441 3.819892,1.19558 7.949938,-0.52022 9.923941,-4.12275 0.8563,-1.56274 0.942612,-1.91308 0.946713,-3.83645 0.0054,-2.50976 -0.75448,-4.44572 -2.385385,-6.07663 -1.633024,-1.63303 -3.566917,-2.39077 -6.07663,-2.38177 z m 0.07751,0.79013 c 3.814077,0.0224 7.577315,2.82788 7.577315,7.53597 0,2.95416 -1.515311,5.42927 -4.148069,6.77479 -1.358093,0.69407 -3.785359,1.01117 -5.094261,0.66559 -4.817557,-1.27193 -7.256928,-6.50667 -5.04672,-10.83087 1.468389,-2.87286 4.1021,-4.16077 6.711735,-4.14548 z m 2.862355,3.83181 c -0.869979,0 -1.749245,0.73903 -1.749245,1.47019 0,0.81088 0.581755,0.84297 0.92914,0.0512 0.339124,-0.77273 1.24356,-0.76915 1.583883,0.007 0.318135,0.72528 1.093634,0.66017 0.97772,-0.0822 -0.106995,-0.68522 -1.023083,-1.44591 -1.741498,-1.44591 z m -5.600173,0.0362 c -0.558663,0.007 -1.128813,0.28101 -1.51257,0.79737 -0.286615,0.38566 -0.440492,0.83214 -0.34158,0.99219 0.282062,0.45638 0.714193,0.34155 0.863513,-0.22945 0.265776,-1.01633 1.931149,-0.88172 1.931149,0.15607 0,0.20046 0.178591,0.36431 0.396875,0.36431 0.576474,0 0.487267,-0.96794 -0.147797,-1.603 -0.327504,-0.32751 -0.755076,-0.48314 -1.18959,-0.47749 z m 3.112987,5.83169 c -0.129223,-0.007 -0.266666,-0.004 -0.412893,0.007 -1.944256,0.14652 -2.606821,2.04718 -1.177708,3.3786 0.813019,0.75745 1.708279,0.66781 2.64015,-0.26406 0.647843,-0.64783 0.766254,-0.93784 0.620633,-1.52136 -0.265329,-1.06319 -0.765617,-1.55306 -1.670182,-1.5999 z"
       id="rect77"
       inkscape:connector-curvature="0" />
  </g>
</svg>
