<?xml version="1.0" encoding="UTF-8" standalone="no"?>
<!-- Created with Inkscape (http://www.inkscape.org/) -->

<svg
   xmlns:dc="http://purl.org/dc/elements/1.1/"
   xmlns:cc="http://creativecommons.org/ns#"
   xmlns:rdf="http://www.w3.org/1999/02/22-rdf-syntax-ns#"
   xmlns:svg="http://www.w3.org/2000/svg"
   xmlns="http://www.w3.org/2000/svg"
   xmlns:sodipodi="http://sodipodi.sourceforge.net/DTD/sodipodi-0.dtd"
   xmlns:inkscape="http://www.inkscape.org/namespaces/inkscape"
   width="17mm"
   height="17mm"
   viewBox="0 0 17 17"
   version="1.1"
   id="svg1051"
   inkscape:version="0.92.4 (5da689c313, 2019-01-14)"
   sodipodi:docname="e19.svg">
  <defs
     id="defs1045" />
  <sodipodi:namedview
     id="base"
     pagecolor="#ffffff"
     bordercolor="#666666"
     borderopacity="1.0"
     inkscape:pageopacity="0.0"
     inkscape:pageshadow="2"
     inkscape:zoom="1.8909582"
     inkscape:cx="87.673635"
     inkscape:cy="179.46426"
     inkscape:document-units="mm"
     inkscape:current-layer="layer1"
     showgrid="false"
     fit-margin-top="0"
     fit-margin-left="0"
     fit-margin-right="0"
     fit-margin-bottom="0"
     inkscape:window-width="977"
     inkscape:window-height="991"
     inkscape:window-x="952"
     inkscape:window-y="0"
     inkscape:window-maximized="0" />
  <metadata
     id="metadata1048">
    <rdf:RDF>
      <cc:Work
         rdf:about="">
        <dc:format>image/svg+xml</dc:format>
        <dc:type
           rdf:resource="http://purl.org/dc/dcmitype/StillImage" />
        <dc:title></dc:title>
      </cc:Work>
    </rdf:RDF>
  </metadata>
  <g
     inkscape:label="Layer 1"
     inkscape:groupmode="layer"
     id="layer1"
     transform="translate(-39.110568,-58.479701)">
    <flowRoot
       xml:space="preserve"
       id="flowRoot1886"
       style="fill:black;fill-opacity:1;stroke:none;font-family:velino;font-style:normal;font-weight:normal;font-size:10.66666667px;line-height:1.25;letter-spacing:0px;word-spacing:0px;text-anchor:start;text-align:start;-inkscape-font-specification:velino;font-stretch:normal;font-variant:normal"><flowRegion
         id="flowRegion1888"><rect
           id="rect1890"
           width="170.81287"
           height="128.50627"
           x="-62.402225"
           y="-45.216343" /></flowRegion><flowPara
         id="flowPara1892"></flowPara></flowRoot>    <flowRoot
       xml:space="preserve"
       id="flowRoot1894"
       style="fill:black;fill-opacity:1;stroke:none;font-family:velino;font-style:normal;font-weight:normal;font-size:10.66666667px;line-height:1.25;letter-spacing:0px;word-spacing:0px;text-anchor:start;text-align:start;-inkscape-font-specification:velino;font-stretch:normal;font-variant:normal"><flowRegion
         id="flowRegion1896"><rect
           id="rect1898"
           width="84.61319"
           height="95.718666"
           x="-24.326292"
           y="-26.707207" /></flowRegion><flowPara
         id="flowPara1900"></flowPara></flowRoot>    <path
       style="opacity:0.97000002;vector-effect:none;fill:#000000;fill-opacity:1;fill-rule:nonzero;stroke:none;stroke-width:0.99999994;stroke-linecap:butt;stroke-linejoin:miter;stroke-miterlimit:4;stroke-dasharray:none;stroke-dashoffset:0;stroke-opacity:1"
       d="m 47.631208,58.618081 c -1.90296,0.007 -2.455963,0.1153 -3.593579,0.70487 -2.761924,1.43139 -4.51078,3.96748 -4.788855,6.94531 -0.358023,3.83397 1.945574,7.33012 5.737632,8.70799 h 5.3e-4 c 1.680643,0.61068 4.553592,0.43658 6.236822,-0.37826 1.646051,-0.79685 3.269371,-2.42149 4.094331,-4.09795 0.92688,-1.88364 0.91991,-5.2313 -0.0145,-7.13703 -0.826421,-1.68555 -2.412551,-3.27259 -4.100521,-4.10259 -1.09653,-0.53919 -1.70778,-0.64934 -3.571873,-0.64234 z m 0.189135,0.78187 c 1.861506,0.0635 3.725836,0.78059 5.059636,2.05827 1.55293,1.48759 2.26291,3.20548 2.26291,5.47666 0,1.62343 -0.12523,2.225 -0.68936,3.3073 -0.81684,1.5671 -2.03479,2.77433 -3.57808,3.54707 -1.235,0.61836 -3.726799,0.91267 -4.964033,0.58601 -7.039626,-1.8586 -7.916243,-11.37645 -1.322916,-14.36347 0.999167,-0.45266 2.114941,-0.64996 3.231843,-0.61184 z m 1.357026,3.83077 c -0.378907,0 -0.24656,0.9743 0.18035,1.3286 0.36052,0.29921 0.35716,0.38642 -0.032,0.81649 -0.25005,0.27629 -0.36288,0.67139 -0.26459,0.92759 0.15534,0.40481 0.22601,0.39546 0.75965,-0.10232 0.58591,-0.54657 0.59132,-0.54705 1.22628,-0.0294 0.89537,0.72985 1.39623,0.20635 0.60668,-0.63408 l -0.57361,-0.61081 0.58033,-0.58033 c 0.45079,-0.45079 0.50974,-0.65143 0.26355,-0.89762 -0.2462,-0.24619 -0.45562,-0.18648 -0.93741,0.26614 l -0.62012,0.58239 -0.48266,-0.5333 c -0.26543,-0.2933 -0.58344,-0.5333 -0.70641,-0.5333 z m -5.55522,0.0605 c -0.09513,0.004 -0.181957,0.0559 -0.277503,0.15141 -0.254781,0.25478 -0.199874,0.4466 0.257349,0.90382 l 0.580327,0.58033 -0.552421,0.58756 c -0.30371,0.32327 -0.473046,0.71613 -0.376206,0.87282 0.191881,0.31045 1.032135,-0.0211 1.347722,-0.53175 0.111392,-0.18024 0.4025,-0.0694 0.801502,0.3054 0.562414,0.52836 0.644157,0.54324 0.797885,0.14263 0.09618,-0.25065 -0.0072,-0.64522 -0.236162,-0.89969 -0.369062,-0.41018 -0.35873,-0.51371 0.110588,-1.09089 0.728351,-0.89573 0.204362,-1.39631 -0.635621,-0.60719 l -0.610815,0.57412 -0.580326,-0.58033 c -0.285766,-0.28576 -0.46777,-0.41429 -0.626319,-0.40824 z m 3.976502,5.79499 c -0.339773,0.007 -0.666149,0.22948 -1.012859,0.67025 l -0.554488,0.70538 -0.735872,-0.70538 c -0.882886,-0.84585 -1.136933,-0.87008 -1.770952,-0.1695 -0.617291,0.6821 -0.153114,1.35841 0.53847,0.78445 0.361722,-0.3002 0.525899,-0.24874 1.129646,0.35501 0.388538,0.38855 0.762342,0.70642 0.83044,0.70642 0.06811,0 0.457954,-0.32004 0.866098,-0.71107 l 0.742074,-0.71055 0.79375,0.76016 0.793751,0.76068 0.78393,-0.75137 c 0.66612,-0.63818 0.84722,-0.69907 1.20199,-0.40463 0.68722,0.57033 1.14738,-0.11055 0.5333,-0.7891 -0.62856,-0.69455 -0.88941,-0.67477 -1.72857,0.12919 l -0.6935,0.66404 -0.623735,-0.66404 c -0.400495,-0.42628 -0.7537,-0.63652 -1.093473,-0.62994 z"
       id="rect79"
       inkscape:connector-curvature="0" />
  </g>
</svg>
