<?xml version="1.0" encoding="UTF-8" standalone="no"?>
<!-- Created with Inkscape (http://www.inkscape.org/) -->

<svg
   xmlns:dc="http://purl.org/dc/elements/1.1/"
   xmlns:cc="http://creativecommons.org/ns#"
   xmlns:rdf="http://www.w3.org/1999/02/22-rdf-syntax-ns#"
   xmlns:svg="http://www.w3.org/2000/svg"
   xmlns="http://www.w3.org/2000/svg"
   xmlns:sodipodi="http://sodipodi.sourceforge.net/DTD/sodipodi-0.dtd"
   xmlns:inkscape="http://www.inkscape.org/namespaces/inkscape"
   width="17mm"
   height="17mm"
   viewBox="0 0 17 17"
   version="1.1"
   id="svg1051"
   inkscape:version="0.92.4 (5da689c313, 2019-01-14)"
   sodipodi:docname="e20.svg">
  <defs
     id="defs1045" />
  <sodipodi:namedview
     id="base"
     pagecolor="#ffffff"
     bordercolor="#666666"
     borderopacity="1.0"
     inkscape:pageopacity="0.0"
     inkscape:pageshadow="2"
     inkscape:zoom="1.8909582"
     inkscape:cx="87.673635"
     inkscape:cy="179.46426"
     inkscape:document-units="mm"
     inkscape:current-layer="layer1"
     showgrid="false"
     fit-margin-top="0"
     fit-margin-left="0"
     fit-margin-right="0"
     fit-margin-bottom="0"
     inkscape:window-width="977"
     inkscape:window-height="991"
     inkscape:window-x="952"
     inkscape:window-y="0"
     inkscape:window-maximized="0" />
  <metadata
     id="metadata1048">
    <rdf:RDF>
      <cc:Work
         rdf:about="">
        <dc:format>image/svg+xml</dc:format>
        <dc:type
           rdf:resource="http://purl.org/dc/dcmitype/StillImage" />
        <dc:title></dc:title>
      </cc:Work>
    </rdf:RDF>
  </metadata>
  <g
     inkscape:label="Layer 1"
     inkscape:groupmode="layer"
     id="layer1"
     transform="translate(-39.110568,-58.479701)">
    <flowRoot
       xml:space="preserve"
       id="flowRoot1886"
       style="fill:black;fill-opacity:1;stroke:none;font-family:velino;font-style:normal;font-weight:normal;font-size:10.66666667px;line-height:1.25;letter-spacing:0px;word-spacing:0px;text-anchor:start;text-align:start;-inkscape-font-specification:velino;font-stretch:normal;font-variant:normal"><flowRegion
         id="flowRegion1888"><rect
           id="rect1890"
           width="170.81287"
           height="128.50627"
           x="-62.402225"
           y="-45.216343" /></flowRegion><flowPara
         id="flowPara1892"></flowPara></flowRoot>    <flowRoot
       xml:space="preserve"
       id="flowRoot1894"
       style="fill:black;fill-opacity:1;stroke:none;font-family:velino;font-style:normal;font-weight:normal;font-size:10.66666667px;line-height:1.25;letter-spacing:0px;word-spacing:0px;text-anchor:start;text-align:start;-inkscape-font-specification:velino;font-stretch:normal;font-variant:normal"><flowRegion
         id="flowRegion1896"><rect
           id="rect1898"
           width="84.61319"
           height="95.718666"
           x="-24.326292"
           y="-26.707207" /></flowRegion><flowPara
         id="flowPara1900"></flowPara></flowRoot>    <path
       style="opacity:0.97000002;vector-effect:none;fill:#000000;fill-opacity:1;fill-rule:nonzero;stroke:none;stroke-width:0.99999994;stroke-linecap:butt;stroke-linejoin:miter;stroke-miterlimit:4;stroke-dasharray:none;stroke-dashoffset:0;stroke-opacity:1"
       d="m 47.767026,58.599546 c -2.50038,-0.009 -4.37106,0.72721 -6.05648,2.384351 -4.55981,4.48334 -2.47312,12.24348 3.80753,14.16089 1.11844,0.34145 3.27446,0.26815 4.71857,-0.16071 1.93391,-0.5743 3.95876,-2.30421 4.93768,-4.21835 0.70127,-1.37119 0.794201,-1.81984 0.792201,-3.82147 -0.003,-2.72713 -0.564351,-4.171311 -2.291331,-5.89732 -1.77931,-1.778301 -3.37193,-2.438391 -5.90817,-2.447391 z m 0,0.803571 c 2.30605,0.0226 4.06742,0.849379 5.65599,2.654099 2.52018,2.86307 2.478501,6.972081 -0.0997,9.839711 -0.651811,0.72497 -1.725391,1.57209 -2.385901,1.88257 -3.00103,1.41065 -6.73978,0.67861 -8.85786,-1.73374 -4.41942,-5.033441 -0.96695,-12.70784 5.68751,-12.64264 z m -4.35322,4.36717 c -0.15692,-0.006 -0.27535,0.184739 -0.27285,0.57568 0.005,0.7226 0.22598,1.07505 0.92191,1.46968 0.67337,0.381869 0.83333,0.383 1.5384,0.0119 0.73602,-0.387409 0.966,-0.737799 0.971,-1.481569 0.005,-0.78552 -0.47502,-0.76202 -0.77928,0.0382 -0.41948,1.10364 -1.45548,1.09929 -1.87637,-0.008 -0.15081,-0.39669 -0.34589,-0.60008 -0.50281,-0.60616 z m 8.48889,0.0837 c -0.157309,0.0159 -0.35031,0.195129 -0.51263,0.55139 -0.42258,0.92754 -1.55542,0.92186 -1.90945,-0.009 -0.14164,-0.372561 -0.37665,-0.60325 -0.52245,-0.513151 -0.49183,0.30397 -0.26966,1.14868 0.45114,1.715661 1.11976,0.8808 2.62092,0.327039 2.78071,-1.02578 0.0578,-0.489591 -0.0851,-0.739251 -0.28732,-0.71882 z m -4.10156,5.18831 c -0.14857,0 -0.58191,0.29922 -0.96325,0.66456 l -0.6935,0.66404 -0.62373,-0.66404 c -0.76976,-0.81935 -1.43304,-0.846591 -1.96991,-0.0801 -0.50261,0.71761 -0.12009,1.26304 0.51573,0.73536 0.36172,-0.3002 0.52591,-0.24874 1.12965,0.35501 0.38854,0.388549 0.76234,0.70642 0.83044,0.70642 0.0681,0 0.45796,-0.32004 0.8661,-0.71107 l 0.74207,-0.71055 0.79375,0.76016 0.79375,0.76068 0.78393,-0.75137 c 0.66611,-0.63818 0.84723,-0.69907 1.202,-0.40463 0.6872,0.57033 1.14738,-0.11055 0.5333,-0.789101 -0.62856,-0.694549 -0.88942,-0.674769 -1.72858,0.129191 l -0.6935,0.66404 -0.62373,-0.66404 c -0.34322,-0.36534 -0.74595,-0.66456 -0.89452,-0.66456 z"
       id="rect81"
       inkscape:connector-curvature="0" />
  </g>
</svg>
