<?xml version="1.0" encoding="UTF-8" standalone="no"?>
<!-- Created with Inkscape (http://www.inkscape.org/) -->

<svg
   xmlns:dc="http://purl.org/dc/elements/1.1/"
   xmlns:cc="http://creativecommons.org/ns#"
   xmlns:rdf="http://www.w3.org/1999/02/22-rdf-syntax-ns#"
   xmlns:svg="http://www.w3.org/2000/svg"
   xmlns="http://www.w3.org/2000/svg"
   xmlns:sodipodi="http://sodipodi.sourceforge.net/DTD/sodipodi-0.dtd"
   xmlns:inkscape="http://www.inkscape.org/namespaces/inkscape"
   width="17mm"
   height="17mm"
   viewBox="0 0 17 17"
   version="1.1"
   id="svg1051"
   inkscape:version="0.92.4 (5da689c313, 2019-01-14)"
   sodipodi:docname="e21.svg">
  <defs
     id="defs1045" />
  <sodipodi:namedview
     id="base"
     pagecolor="#ffffff"
     bordercolor="#666666"
     borderopacity="1.0"
     inkscape:pageopacity="0.0"
     inkscape:pageshadow="2"
     inkscape:zoom="1.8909582"
     inkscape:cx="87.673635"
     inkscape:cy="179.46426"
     inkscape:document-units="mm"
     inkscape:current-layer="layer1"
     showgrid="false"
     fit-margin-top="0"
     fit-margin-left="0"
     fit-margin-right="0"
     fit-margin-bottom="0"
     inkscape:window-width="977"
     inkscape:window-height="991"
     inkscape:window-x="952"
     inkscape:window-y="0"
     inkscape:window-maximized="0" />
  <metadata
     id="metadata1048">
    <rdf:RDF>
      <cc:Work
         rdf:about="">
        <dc:format>image/svg+xml</dc:format>
        <dc:type
           rdf:resource="http://purl.org/dc/dcmitype/StillImage" />
        <dc:title></dc:title>
      </cc:Work>
    </rdf:RDF>
  </metadata>
  <g
     inkscape:label="Layer 1"
     inkscape:groupmode="layer"
     id="layer1"
     transform="translate(-39.110568,-58.479701)">
    <flowRoot
       xml:space="preserve"
       id="flowRoot1886"
       style="fill:black;fill-opacity:1;stroke:none;font-family:velino;font-style:normal;font-weight:normal;font-size:10.66666667px;line-height:1.25;letter-spacing:0px;word-spacing:0px;text-anchor:start;text-align:start;-inkscape-font-specification:velino;font-stretch:normal;font-variant:normal"><flowRegion
         id="flowRegion1888"><rect
           id="rect1890"
           width="170.81287"
           height="128.50627"
           x="-62.402225"
           y="-45.216343" /></flowRegion><flowPara
         id="flowPara1892"></flowPara></flowRoot>    <flowRoot
       xml:space="preserve"
       id="flowRoot1894"
       style="fill:black;fill-opacity:1;stroke:none;font-family:velino;font-style:normal;font-weight:normal;font-size:10.66666667px;line-height:1.25;letter-spacing:0px;word-spacing:0px;text-anchor:start;text-align:start;-inkscape-font-specification:velino;font-stretch:normal;font-variant:normal"><flowRegion
         id="flowRegion1896"><rect
           id="rect1898"
           width="84.61319"
           height="95.718666"
           x="-24.326292"
           y="-26.707207" /></flowRegion><flowPara
         id="flowPara1900"></flowPara></flowRoot>    <path
       style="opacity:0.97000002;vector-effect:none;fill:#000000;fill-opacity:1;fill-rule:nonzero;stroke:none;stroke-width:0.99999994;stroke-linecap:butt;stroke-linejoin:miter;stroke-miterlimit:4;stroke-dasharray:none;stroke-dashoffset:0;stroke-opacity:1"
       d="m 47.890655,58.568853 c -2.627543,-0.066 -5.583824,1.34088 -7.097757,3.4308 -3.224246,4.45095 -1.33258,10.88278 3.798736,12.91653 1.820722,0.72163 4.78618,0.61107 6.583058,-0.24547 1.727166,-0.82332 3.298463,-2.42679 4.121198,-4.20543 0.910757,-1.96891 0.964874,-4.84508 0.12609,-6.70243 -1.23924,-2.7441 -4.116766,-4.86221 -7.010943,-5.16092 -0.171725,-0.0177 -0.345212,-0.0287 -0.520382,-0.0331 z m -0.103867,0.90744 c 2.688267,0.0512 5.318233,1.51147 6.631635,4.20956 0.763519,1.56848 0.864254,4.75012 0.197922,6.25647 -0.729819,1.64987 -2.043443,3.04905 -3.607533,3.84162 -0.869633,0.44069 -1.901804,0.71294 -2.934187,0.77464 -6.829516,0.40832 -10.643774,-7.48094 -6.074048,-12.56358 1.569512,-1.74567 3.695333,-2.55852 5.786211,-2.51871 z m 3.937743,3.8039 c -0.09976,0 -0.446257,0.24882 -0.76998,0.55294 l -0.588595,0.55294 -0.579292,-0.57929 c -0.424897,-0.42489 -0.658262,-0.50084 -0.873847,-0.28526 -0.215588,0.21559 -0.138769,0.44879 0.286803,0.87437 l 0.580327,0.58032 -0.552421,0.58756 c -0.3037,0.32329 -0.473311,0.7155 -0.376722,0.87179 0.247478,0.40042 0.428001,0.35863 1.07487,-0.24908 l 0.567925,-0.53331 0.482656,0.53331 c 0.265435,0.2933 0.582935,0.5333 0.7059,0.5333 0.368144,0 0.253019,-0.85185 -0.179832,-1.33015 -0.36168,-0.39964 -0.36168,-0.48068 0,-0.78083 0.401572,-0.33328 0.568045,-1.32861 0.222208,-1.32861 z m -8.228438,0.18759 c -0.343303,-0.033 -0.379582,0.40176 0.170531,0.95188 l 0.557073,0.55655 -0.552421,0.58756 c -0.303702,0.32329 -0.467678,0.7247 -0.364318,0.89194 0.129445,0.20944 0.385254,0.11852 0.821655,-0.29145 l 0.633553,-0.5948 0.633553,0.5948 c 0.743614,0.69859 1.262364,0.27691 0.582909,-0.47388 -0.232537,-0.25695 -0.422712,-0.56778 -0.422712,-0.6904 0,-0.1226 0.190175,-0.43293 0.422712,-0.68988 0.679455,-0.75078 0.160705,-1.17298 -0.582909,-0.47439 l -0.633553,0.59532 -0.633553,-0.59532 c -0.256923,-0.24136 -0.476474,-0.35292 -0.63252,-0.36793 z m 4.273639,4.84053 c -0.810193,5.29e-4 -1.601888,0.19237 -2.134753,0.51728 -0.892876,0.54442 -1.798384,1.965 -1.529622,2.39986 0.272354,0.44067 0.659794,0.28271 0.907954,-0.37001 0.339228,-0.89223 1.54001,-1.75441 2.443263,-1.75441 1.12226,0 2.231417,0.66492 2.637049,1.5813 0.194718,0.4399 0.503505,0.79995 0.686263,0.79995 0.674497,0 0.302062,-1.15057 -0.695049,-2.14767 -0.912337,-0.91234 -1.171229,-1.0271 -2.315105,-1.0263 z"
       id="rect83"
       inkscape:connector-curvature="0" />
  </g>
</svg>
