<?xml version="1.0" encoding="UTF-8" standalone="no"?>
<!-- Created with Inkscape (http://www.inkscape.org/) -->

<svg
   xmlns:dc="http://purl.org/dc/elements/1.1/"
   xmlns:cc="http://creativecommons.org/ns#"
   xmlns:rdf="http://www.w3.org/1999/02/22-rdf-syntax-ns#"
   xmlns:svg="http://www.w3.org/2000/svg"
   xmlns="http://www.w3.org/2000/svg"
   xmlns:sodipodi="http://sodipodi.sourceforge.net/DTD/sodipodi-0.dtd"
   xmlns:inkscape="http://www.inkscape.org/namespaces/inkscape"
   width="17mm"
   height="17mm"
   viewBox="0 0 17 17"
   version="1.1"
   id="svg1051"
   inkscape:version="0.92.4 (5da689c313, 2019-01-14)"
   sodipodi:docname="e22.svg">
  <defs
     id="defs1045" />
  <sodipodi:namedview
     id="base"
     pagecolor="#ffffff"
     bordercolor="#666666"
     borderopacity="1.0"
     inkscape:pageopacity="0.0"
     inkscape:pageshadow="2"
     inkscape:zoom="1.8909582"
     inkscape:cx="87.673635"
     inkscape:cy="179.46426"
     inkscape:document-units="mm"
     inkscape:current-layer="layer1"
     showgrid="false"
     fit-margin-top="0"
     fit-margin-left="0"
     fit-margin-right="0"
     fit-margin-bottom="0"
     inkscape:window-width="977"
     inkscape:window-height="991"
     inkscape:window-x="952"
     inkscape:window-y="0"
     inkscape:window-maximized="0" />
  <metadata
     id="metadata1048">
    <rdf:RDF>
      <cc:Work
         rdf:about="">
        <dc:format>image/svg+xml</dc:format>
        <dc:type
           rdf:resource="http://purl.org/dc/dcmitype/StillImage" />
        <dc:title></dc:title>
      </cc:Work>
    </rdf:RDF>
  </metadata>
  <g
     inkscape:label="Layer 1"
     inkscape:groupmode="layer"
     id="layer1"
     transform="translate(-39.110568,-58.479701)">
    <path
       style="opacity:0.97000002;vector-effect:none;fill:#000000;fill-opacity:1;fill-rule:nonzero;stroke:none;stroke-width:0.99999994;stroke-linecap:butt;stroke-linejoin:miter;stroke-miterlimit:4;stroke-dasharray:none;stroke-dashoffset:0;stroke-opacity:1"
       d="m 47.68062,58.57909 c -1.726906,-0.005 -2.22676,0.11094 -3.781682,0.87643 -3.948829,1.944 -5.672698,6.36588 -4.109825,10.54303 0.750294,2.00535 2.752227,4.03387 4.730977,4.7935 4.122798,1.58271 8.577884,-0.11601 10.574549,-4.03179 0.82623,-1.62036 0.924031,-2.03244 0.908471,-3.82613 -0.02199,-2.53131 -0.72576,-4.23668 -2.444811,-5.92521 -1.777048,-1.7455 -3.416051,-2.42283 -5.877679,-2.42983 z m -0.0155,0.78342 c 3.83336,0.0131 7.490447,2.9587 7.516852,7.53855 0.01688,2.92861 -1.542219,5.48006 -4.159435,6.8063 -0.855157,0.43334 -1.918991,0.71734 -2.934187,0.78394 -6.732486,0.44177 -10.606034,-7.5326 -6.095751,-12.54911 1.608492,-1.78903 3.664569,-2.58655 5.672521,-2.57968 z m 4.038516,3.91293 c -0.160872,-0.006 -0.350065,0.11688 -0.640789,0.3881 -0.596609,0.55663 -0.600779,0.55663 -1.236099,0.0387 -0.895125,-0.72966 -1.426007,-0.19559 -0.6134,0.61702 l 0.580327,0.58032 -0.552421,0.58756 c -0.3037,0.32328 -0.473311,0.7155 -0.376722,0.87179 0.256373,0.41482 0.531135,0.35117 1.074354,-0.24908 l 0.482658,-0.53331 0.620117,0.58292 c 0.474634,0.44589 0.693092,0.50994 0.930691,0.27233 0.237601,-0.2376 0.175606,-0.45394 -0.263549,-0.92139 l -0.573609,-0.61133 0.580327,-0.58033 c 0.450786,-0.45079 0.509738,-0.65091 0.263551,-0.8971 -0.09232,-0.0923 -0.178914,-0.14255 -0.275436,-0.14625 z m -5.692675,0.017 c -0.11272,0.0197 -0.279895,0.16428 -0.580845,0.44701 l -0.654223,0.61494 -0.633553,-0.59531 c -0.822149,-0.77237 -1.262154,-0.21621 -0.461988,0.58394 l 0.557073,0.55656 -0.552421,0.58756 c -0.303702,0.32328 -0.46768,0.7247 -0.364318,0.89194 0.129445,0.20944 0.385254,0.11851 0.821654,-0.29146 l 0.633553,-0.59479 0.633554,0.59479 c 0.743614,0.69859 1.262364,0.27691 0.582909,-0.47387 -0.540446,-0.59718 -0.535827,-0.99761 0.01497,-1.30586 0.282919,-0.15833 0.373732,-0.41088 0.25735,-0.71417 -0.08279,-0.21576 -0.141013,-0.32095 -0.25373,-0.30128 z m 1.687235,5.70043 c -0.568042,-0.0325 -1.155343,0.18844 -1.580266,0.72864 -0.727438,0.92479 -0.692902,1.82839 0.100769,2.62206 1.276744,1.27675 3.319695,0.42717 3.319695,-1.38079 0,-1.15732 -0.893463,-1.91571 -1.840198,-1.96991 z"
       id="rect85"
       inkscape:connector-curvature="0" />
  </g>
</svg>
