<?xml version="1.0" encoding="UTF-8" standalone="no"?>
<!-- Created with Inkscape (http://www.inkscape.org/) -->

<svg
   xmlns:dc="http://purl.org/dc/elements/1.1/"
   xmlns:cc="http://creativecommons.org/ns#"
   xmlns:rdf="http://www.w3.org/1999/02/22-rdf-syntax-ns#"
   xmlns:svg="http://www.w3.org/2000/svg"
   xmlns="http://www.w3.org/2000/svg"
   xmlns:sodipodi="http://sodipodi.sourceforge.net/DTD/sodipodi-0.dtd"
   xmlns:inkscape="http://www.inkscape.org/namespaces/inkscape"
   width="17mm"
   height="17mm"
   viewBox="0 0 17 17"
   version="1.1"
   id="svg1051"
   inkscape:version="0.92.4 (5da689c313, 2019-01-14)"
   sodipodi:docname="e23.svg">
  <defs
     id="defs1045" />
  <sodipodi:namedview
     id="base"
     pagecolor="#ffffff"
     bordercolor="#666666"
     borderopacity="1.0"
     inkscape:pageopacity="0.0"
     inkscape:pageshadow="2"
     inkscape:zoom="1.8909582"
     inkscape:cx="87.673635"
     inkscape:cy="179.46426"
     inkscape:document-units="mm"
     inkscape:current-layer="layer1"
     showgrid="false"
     fit-margin-top="0"
     fit-margin-left="0"
     fit-margin-right="0"
     fit-margin-bottom="0"
     inkscape:window-width="977"
     inkscape:window-height="991"
     inkscape:window-x="952"
     inkscape:window-y="0"
     inkscape:window-maximized="0" />
  <metadata
     id="metadata1048">
    <rdf:RDF>
      <cc:Work
         rdf:about="">
        <dc:format>image/svg+xml</dc:format>
        <dc:type
           rdf:resource="http://purl.org/dc/dcmitype/StillImage" />
        <dc:title></dc:title>
      </cc:Work>
    </rdf:RDF>
  </metadata>
  <g
     inkscape:label="Layer 1"
     inkscape:groupmode="layer"
     id="layer1"
     transform="translate(-39.110568,-58.479701)">
    <path
       style="opacity:0.97000002;vector-effect:none;fill:#000000;fill-opacity:1;fill-rule:nonzero;stroke:none;stroke-width:0.99999994;stroke-linecap:butt;stroke-linejoin:miter;stroke-miterlimit:4;stroke-dasharray:none;stroke-dashoffset:0;stroke-opacity:1"
       d="m 47.623134,58.589744 c -3.098025,0.0134 -6.169488,1.72246 -7.712708,4.86069 -0.496194,1.00905 -0.6175,1.6912 -0.622702,3.50211 -0.0056,1.93655 0.09655,2.45909 0.735873,3.76101 0.889378,1.81113 2.639229,3.42881 4.511354,4.17081 1.864522,0.73898 4.835165,0.62108 6.664709,-0.26459 1.663891,-0.80547 3.268818,-2.41723 4.078303,-4.09536 0.503849,-1.04451 0.641848,-1.76836 0.655257,-3.43958 0.02019,-2.51178 -0.71845,-4.37972 -2.39417,-6.05544 -1.664001,-1.664 -3.796215,-2.4488 -5.915916,-2.43965 z m 0.01085,0.85163 c 5.448367,-0.0183 9.099172,5.62187 6.879167,10.62778 -0.80906,1.82435 -2.796256,3.6242 -4.589902,4.15685 -2.975964,0.88377 -5.399801,0.2598 -7.62124,-1.96164 -1.221669,-1.22167 -1.616734,-1.8351 -1.974557,-3.06596 -1.434166,-4.93335 2.165218,-9.73973 7.306532,-9.75703 z m 1.523938,3.86281 c -0.07993,0.0173 -0.145789,0.0899 -0.221177,0.21188 -0.162647,0.26317 -0.08011,0.5551 0.2589,0.91881 0.486458,0.52189 0.486148,0.54639 -0.01085,1.156 -0.279294,0.34258 -0.441788,0.72953 -0.361217,0.85989 v 5.29e-4 c 0.227021,0.36733 0.519413,0.28404 1.044898,-0.29662 l 0.482658,-0.5333 0.620117,0.58291 c 0.474634,0.44589 0.693092,0.50993 0.930691,0.27233 0.237601,-0.2376 0.175606,-0.45393 -0.263549,-0.92139 l -0.573609,-0.61081 0.580327,-0.58033 c 0.812607,-0.8126 0.281725,-1.34668 -0.6134,-0.61702 -0.635661,0.51811 -0.639619,0.51809 -1.246952,-0.0486 -0.320998,-0.2995 -0.493622,-0.42319 -0.626835,-0.39429 z m -3.223576,0.0408 c -0.114668,0.0236 -0.283517,0.16584 -0.576194,0.4408 l -0.656807,0.61702 -0.558104,-0.59945 c -0.404222,-0.43388 -0.637772,-0.51926 -0.847494,-0.30954 -0.20972,0.20972 -0.129342,0.44995 0.290938,0.87023 l 0.580327,0.58032 -0.552421,0.58756 c -0.303705,0.32329 -0.472197,0.71778 -0.374137,0.87644 0.185081,0.29947 0.507151,0.18771 1.223698,-0.42427 0.359092,-0.30669 0.489693,-0.28158 0.900718,0.1726 0.264459,0.29222 0.581382,0.53124 0.70435,0.53124 0.367639,0 0.253614,-0.58608 -0.214455,-1.1033 -0.408025,-0.45086 -0.405887,-0.51965 0.03204,-1.00355 0.275775,-0.30472 0.399198,-0.70341 0.298691,-0.96532 -0.07637,-0.19901 -0.136483,-0.29438 -0.251148,-0.27078 z m 1.681552,6.51795 c -2.645834,0 -3.175,0.0661 -3.175,0.39687 0,0.33068 0.529166,0.39688 3.175,0.39688 2.645831,0 3.175,-0.0661 3.175,-0.39688 0,-0.33077 -0.529169,-0.39687 -3.175,-0.39687 z"
       id="rect87"
       inkscape:connector-curvature="0" />
  </g>
</svg>
