<?xml version="1.0" encoding="UTF-8" standalone="no"?>
<!-- Created with Inkscape (http://www.inkscape.org/) -->

<svg
   xmlns:dc="http://purl.org/dc/elements/1.1/"
   xmlns:cc="http://creativecommons.org/ns#"
   xmlns:rdf="http://www.w3.org/1999/02/22-rdf-syntax-ns#"
   xmlns:svg="http://www.w3.org/2000/svg"
   xmlns="http://www.w3.org/2000/svg"
   xmlns:sodipodi="http://sodipodi.sourceforge.net/DTD/sodipodi-0.dtd"
   xmlns:inkscape="http://www.inkscape.org/namespaces/inkscape"
   width="17mm"
   height="17mm"
   viewBox="0 0 17 17"
   version="1.1"
   id="svg1051"
   inkscape:version="0.92.4 (5da689c313, 2019-01-14)"
   sodipodi:docname="e24.svg">
  <defs
     id="defs1045" />
  <sodipodi:namedview
     id="base"
     pagecolor="#ffffff"
     bordercolor="#666666"
     borderopacity="1.0"
     inkscape:pageopacity="0.0"
     inkscape:pageshadow="2"
     inkscape:zoom="1.8909582"
     inkscape:cx="87.673635"
     inkscape:cy="179.46426"
     inkscape:document-units="mm"
     inkscape:current-layer="layer1"
     showgrid="false"
     fit-margin-top="0"
     fit-margin-left="0"
     fit-margin-right="0"
     fit-margin-bottom="0"
     inkscape:window-width="977"
     inkscape:window-height="991"
     inkscape:window-x="952"
     inkscape:window-y="0"
     inkscape:window-maximized="0" />
  <metadata
     id="metadata1048">
    <rdf:RDF>
      <cc:Work
         rdf:about="">
        <dc:format>image/svg+xml</dc:format>
        <dc:type
           rdf:resource="http://purl.org/dc/dcmitype/StillImage" />
        <dc:title></dc:title>
      </cc:Work>
    </rdf:RDF>
  </metadata>
  <g
     inkscape:label="Layer 1"
     inkscape:groupmode="layer"
     id="layer1"
     transform="translate(-39.110568,-58.479701)">
    <path
       style="opacity:0.97000002;vector-effect:none;fill:#000000;fill-opacity:1;fill-rule:nonzero;stroke:none;stroke-width:0.99999994;stroke-linecap:butt;stroke-linejoin:miter;stroke-miterlimit:4;stroke-dasharray:none;stroke-dashoffset:0;stroke-opacity:1"
       d="m 47.597409,58.594681 c -3.09862,0.0358 -6.161339,1.7584 -7.608322,4.87723 -2.106863,4.54112 0.102791,9.80788 4.823479,11.49748 0.95644,0.34235 1.859698,0.44654 3.247863,0.37414 7.321652,-0.38179 10.646602,-9.15529 5.442042,-14.35985 -1.6481,-1.6481 -3.78495,-2.41349 -5.905062,-2.389 z m 0.0553,0.80719 c 4.698012,0.0288 8.718172,4.68002 7.227982,9.80612 -0.61462,2.11419 -2.85174,4.39561 -4.9103,5.00693 -2.743214,0.81465 -5.226932,0.31368 -7.242964,-1.46089 -1.824556,-1.60604 -2.641865,-3.35606 -2.643765,-5.65961 -0.0024,-3.1335 1.49832,-5.56829 4.267439,-6.92309 1.096928,-0.53668 2.217449,-0.77611 3.301608,-0.76946 z m -1.606622,3.85661 c -0.122967,0 -0.435969,0.23457 -0.695563,0.52142 -0.469587,0.51847 -0.475371,0.51867 -1.144635,-0.008 -0.924824,-0.72747 -1.465217,-0.22136 -0.642337,0.60152 l 0.580327,0.58032 -0.552421,0.58756 c -0.3037,0.32329 -0.473311,0.71549 -0.376722,0.87179 v 5.29e-4 c 0.256374,0.41482 0.531134,0.35117 1.074354,-0.24908 l 0.482658,-0.5333 0.620118,0.58291 c 0.860409,0.80831 1.360138,0.30235 0.624768,-0.63252 -0.46637,-0.59289 -0.484008,-0.71809 -0.140044,-1.00356 0.418883,-0.34764 0.543729,-1.31982 0.169497,-1.31982 z m 3.214284,0.0796 c -0.10381,-0.014 -0.16004,0.0849 -0.23772,0.28732 -0.0983,0.2562 0.014,0.65129 0.26407,0.9276 0.38921,0.43006 0.39309,0.51675 0.0326,0.81597 -0.22196,0.1842 -0.40359,0.55876 -0.40359,0.83199 0,0.64316 0.32617,0.63016 0.92965,-0.0367 l 0.48266,-0.53331 0.62012,0.58292 c 0.47463,0.44589 0.69309,0.50993 0.93069,0.27233 0.2376,-0.2376 0.17561,-0.45393 -0.26355,-0.92139 l -0.57361,-0.61082 0.58033,-0.58032 c 0.81261,-0.8126 0.28173,-1.34668 -0.6134,-0.61702 -0.63496,0.51756 -0.64037,0.5176 -1.22628,-0.0289 -0.26682,-0.24889 -0.41813,-0.37563 -0.52193,-0.38964 z m -4.640036,5.84254 c -0.27322,-0.0158 -0.432528,0.0222 -0.517797,0.10749 -0.35881,0.35881 -0.326168,0.37341 3.05821,1.39319 2.746353,0.82754 2.990763,0.86903 3.191543,0.54416 0.25141,-0.40679 -0.43193,-0.72263 -3.228749,-1.49242 -1.27553,-0.35108 -2.04784,-0.52606 -2.503207,-0.55242 z"
       id="rect89"
       inkscape:connector-curvature="0" />
  </g>
</svg>
