<?xml version="1.0" encoding="UTF-8" standalone="no"?>
<!-- Created with Inkscape (http://www.inkscape.org/) -->

<svg
   xmlns:dc="http://purl.org/dc/elements/1.1/"
   xmlns:cc="http://creativecommons.org/ns#"
   xmlns:rdf="http://www.w3.org/1999/02/22-rdf-syntax-ns#"
   xmlns:svg="http://www.w3.org/2000/svg"
   xmlns="http://www.w3.org/2000/svg"
   xmlns:sodipodi="http://sodipodi.sourceforge.net/DTD/sodipodi-0.dtd"
   xmlns:inkscape="http://www.inkscape.org/namespaces/inkscape"
   width="17mm"
   height="17mm"
   viewBox="0 0 17 17"
   version="1.1"
   id="svg1051"
   inkscape:version="0.92.4 (5da689c313, 2019-01-14)"
   sodipodi:docname="e25.svg">
  <defs
     id="defs1045" />
  <sodipodi:namedview
     id="base"
     pagecolor="#ffffff"
     bordercolor="#666666"
     borderopacity="1.0"
     inkscape:pageopacity="0.0"
     inkscape:pageshadow="2"
     inkscape:zoom="1.8909582"
     inkscape:cx="87.673635"
     inkscape:cy="179.46426"
     inkscape:document-units="mm"
     inkscape:current-layer="layer1"
     showgrid="false"
     fit-margin-top="0"
     fit-margin-left="0"
     fit-margin-right="0"
     fit-margin-bottom="0"
     inkscape:window-width="977"
     inkscape:window-height="991"
     inkscape:window-x="952"
     inkscape:window-y="0"
     inkscape:window-maximized="0" />
  <metadata
     id="metadata1048">
    <rdf:RDF>
      <cc:Work
         rdf:about="">
        <dc:format>image/svg+xml</dc:format>
        <dc:type
           rdf:resource="http://purl.org/dc/dcmitype/StillImage" />
        <dc:title></dc:title>
      </cc:Work>
    </rdf:RDF>
  </metadata>
  <g
     inkscape:label="Layer 1"
     inkscape:groupmode="layer"
     id="layer1"
     transform="translate(-39.110568,-58.479701)">
    <path
       style="opacity:0.97000002;vector-effect:none;fill:#000000;fill-opacity:1;fill-rule:nonzero;stroke:none;stroke-width:0.99999994;stroke-linecap:butt;stroke-linejoin:miter;stroke-miterlimit:4;stroke-dasharray:none;stroke-dashoffset:0;stroke-opacity:1"
       d="m 47.565541,58.583797 c -2.4919,0.008 -4.192931,0.71527 -5.89886,2.45205 -1.75093,1.78257 -2.42335,3.4149 -2.43035,5.89938 -0.005,1.782 0.10031,2.21746 0.92088,3.82612 1.05034,2.05915 2.77356,3.58049 4.7625,4.20388 5.74265,1.79989 11.41473,-2.55468 11.04842,-8.48165 -0.2857,-4.62254 -3.78755,-7.91488 -8.40259,-7.89978 z m -0.002,0.78187 c 2.00829,-0.0206 4.06199,0.76022 5.6565,2.53369 3.40716,3.78959 2.15152,9.88457 -2.46342,11.95845 -1.27869,0.57464 -3.98894,0.83907 -5.043101,0.49196 -3.549959,-1.16891 -5.653919,-3.93773 -5.653919,-7.44141 0,-4.54437 3.66991,-7.50347 7.50394,-7.54269 z m -2.77606,4.36769 c -0.30559,0 -0.6987,0.14318 -0.87333,0.31781 -0.17462,0.17462 -0.3173,0.56723 -0.3173,0.87281 0,0.30561 0.14268,0.69871 0.3173,0.87334 0.17463,0.17462 0.56774,0.31729 0.87333,0.31729 0.305589,0 0.69819,-0.14267 0.87281,-0.31729 0.17463,-0.17463 0.31781,-0.56773 0.31781,-0.87334 0,-0.30558 -0.14318,-0.69819 -0.31781,-0.87281 -0.17462,-0.17463 -0.567221,-0.31781 -0.87281,-0.31781 z m 5.60017,0.0605 c -0.0931,0.004 -0.18938,0.0182 -0.28783,0.0429 -0.77209,0.19378 -1.08766,0.99182 -0.68782,1.73892 0.54887,1.02557 2.12235,0.52708 2.12235,-0.67231 0,-0.68559 -0.49531,-1.13917 -1.1467,-1.1095 z m 0.4992,5.26893 c -0.24863,0.0185 -0.52352,0.22486 -0.9431,0.62684 l -0.6935,0.66404 -0.62373,-0.66404 c -0.7851,-0.83571 -0.99057,-0.83087 -1.90634,0.0465 l -0.74208,0.71107 -0.74207,-0.71107 c -0.89774,-0.86009 -1.04088,-0.87178 -1.680001,-0.13487 -0.599819,0.69164 -0.23563,1.30543 0.441321,0.74362 0.36172,-0.3002 0.5259,-0.24873 1.12964,0.35502 0.38854,0.38854 0.76234,0.70642 0.83044,0.70642 0.0681,0 0.457959,-0.32005 0.8661,-0.71107 l 0.74207,-0.71055 0.79375,0.76016 0.79375,0.76067 0.78394,-0.75137 c 0.66611,-0.63817 0.84722,-0.69906 1.20199,-0.40463 0.68721,0.57034 1.14738,-0.11056 0.5333,-0.7891 -0.31428,-0.34727 -0.53685,-0.51617 -0.78548,-0.49764 z"
       id="rect91"
       inkscape:connector-curvature="0" />
  </g>
</svg>
